<svg width="20" height="20" viewBox="0 0 20 20" fill="none" xmlns="http://www.w3.org/2000/svg">
<path d="M6.65828 3.75186L12.7481 9.99991L6.65828 16.248C6.54959 16.3596 6.48877 16.5092 6.48877 16.6649C6.48877 16.8207 6.54959 16.9703 6.65828 17.0819C6.71107 17.1363 6.77422 17.1795 6.844 17.209C6.91378 17.2385 6.98877 17.2537 7.06453 17.2537C7.14029 17.2537 7.21527 17.2385 7.28505 17.209C7.35483 17.1795 7.41799 17.1363 7.47078 17.0819L13.9493 10.4355C14.0626 10.3188 14.126 10.1626 14.126 9.99991C14.126 9.83726 14.0626 9.68102 13.9493 9.56436L7.47078 2.91788C7.41796 2.86324 7.35468 2.81979 7.28472 2.79012C7.21476 2.76044 7.13955 2.74515 7.06355 2.74515C6.98756 2.74515 6.91234 2.76044 6.84238 2.79012C6.77242 2.81979 6.70914 2.86324 6.65632 2.91788C6.54764 3.02948 6.48682 3.1791 6.48682 3.33487C6.48682 3.49065 6.54764 3.64027 6.65632 3.75186H6.65828Z" fill="white" fill-opacity="0.8"/>
</svg>
